<svg xmlns="http://www.w3.org/2000/svg" xmlns:xlink="http://www.w3.org/1999/xlink" width="152" height="152" viewBox="0 0 152 152">
  <defs>
    <filter id="Ellipse_1778">
      <feOffset dy="3" input="SourceAlpha"/>
      <feGaussianBlur stdDeviation="3" result="blur"/>
      <feFlood flood-opacity="0.161" result="color"/>
      <feComposite operator="out" in="SourceGraphic" in2="blur"/>
      <feComposite operator="in" in="color"/>
      <feComposite operator="in" in2="SourceGraphic"/>
    </filter>
    <clipPath id="clip-path">
      <rect id="Rectangle_119" data-name="Rectangle 119" width="71.9" height="71.9" fill="none"/>
    </clipPath>
  </defs>
  <g id="Multigenerational" transform="translate(-413 -2516)">
    <g data-type="innerShadowGroup">
      <circle id="Ellipse_1778-2" data-name="Ellipse 1778" cx="76" cy="76" r="76" transform="translate(413 2516)" fill="#edeef4"/>
      <g transform="matrix(1, 0, 0, 1, 413, 2516)" filter="url(#Ellipse_1778)">
        <circle id="Ellipse_1778-3" data-name="Ellipse 1778" cx="76" cy="76" r="76" fill="#fff"/>
      </g>
    </g>
    <g id="Group_425" data-name="Group 425" transform="translate(452.051 2553.863)">
      <g id="Group_424" data-name="Group 424" clip-path="url(#clip-path)">
        <path id="Path_3872" data-name="Path 3872" d="M57.295,0a12.37,12.37,0,0,0-3.862,24.118,14.605,14.605,0,0,0-9.479,8.075A12.324,12.324,0,0,0,23.8,39.25a14.573,14.573,0,0,0-5.371-2.738,12.412,12.412,0,1,0-7.654-.035A14.575,14.575,0,0,0,0,50.555V71.9H62.912V69.653H50.555V67.407A14.574,14.574,0,0,0,39.777,53.328a12.387,12.387,0,0,0,8.531-11.761,12.213,12.213,0,0,0-2.633-7.548A12.352,12.352,0,0,1,69.653,38.2V71.9H71.9V38.2A14.575,14.575,0,0,0,61.122,24.119,12.364,12.364,0,0,0,57.295,0Zm0,2.247a10.111,10.111,0,1,1-10.11,10.11,10.094,10.094,0,0,1,10.11-10.11M14.6,14.6A10.11,10.11,0,1,1,4.493,24.715,10.094,10.094,0,0,1,14.6,14.6ZM35.95,31.456a10.11,10.11,0,1,1-10.11,10.11,10.093,10.093,0,0,1,10.11-10.11M14.6,38.2a12.255,12.255,0,0,1,9.022,3.9,12.373,12.373,0,0,0,8.5,11.234A14.574,14.574,0,0,0,21.345,67.406v2.247H2.246v-19.1A12.306,12.306,0,0,1,14.6,38.2ZM35.95,55.048A12.307,12.307,0,0,1,48.308,67.406v2.247H23.592V67.406A12.307,12.307,0,0,1,35.95,55.048Z"/>
      </g>
    </g>
  </g>
</svg>
