<svg xmlns="http://www.w3.org/2000/svg" xmlns:xlink="http://www.w3.org/1999/xlink" width="152" height="152" viewBox="0 0 152 152">
  <defs>
    <filter id="Ellipse_1779">
      <feOffset dy="3" input="SourceAlpha"/>
      <feGaussianBlur stdDeviation="3" result="blur"/>
      <feFlood flood-opacity="0.161" result="color"/>
      <feComposite operator="out" in="SourceGraphic" in2="blur"/>
      <feComposite operator="in" in="color"/>
      <feComposite operator="in" in2="SourceGraphic"/>
    </filter>
    <clipPath id="clip-path">
      <rect id="Rectangle_118" data-name="Rectangle 118" width="89.225" height="74.273" fill="none"/>
    </clipPath>
  </defs>
  <g id="Sustainability" transform="translate(-884 -2516)">
    <g data-type="innerShadowGroup">
      <circle id="Ellipse_1779-2" data-name="Ellipse 1779" cx="76" cy="76" r="76" transform="translate(884 2516)" fill="#edeef4"/>
      <g transform="matrix(1, 0, 0, 1, 884, 2516)" filter="url(#Ellipse_1779)">
        <circle id="Ellipse_1779-3" data-name="Ellipse 1779" cx="76" cy="76" r="76" fill="#fff"/>
      </g>
    </g>
    <g id="Group_423" data-name="Group 423" transform="translate(915.388 2553.863)">
      <g id="Group_422" data-name="Group 422" clip-path="url(#clip-path)">
        <path id="Path_3871" data-name="Path 3871" d="M26.638,0A.929.929,0,0,0,25.9.388,25.533,25.533,0,0,0,21.75,21.341v.005a14.9,14.9,0,0,0,9.01,10.485,19.64,19.64,0,0,0,10.62.577c4.281.267,7.376-.387,9.746-1.746a15.356,15.356,0,0,0,5.375-5.7c2.781-4.571,4.872-10.157,11.039-14.842a.929.929,0,0,0-.229-1.606,25.91,25.91,0,0,0-11.784-1.56,23.009,23.009,0,0,0-10.682,3.713,15.665,15.665,0,0,0-5,5.422C36.805,12.624,33.2,9.9,30.727,6.36h0l-.01-.014a27.19,27.19,0,0,1-3.2-5.765A.929.929,0,0,0,26.638,0Zm-.064,2.93A29.12,29.12,0,0,0,29.2,7.422c2.87,4.114,6.847,6.986,9.8,10.541-.145.415-.281.841-.394,1.277a16.924,16.924,0,0,0,.719,9.889,21.874,21.874,0,0,1-9.441-15.28h0a.93.93,0,1,0-1.856.119A24.317,24.317,0,0,0,38.649,30.921a16.269,16.269,0,0,1-7.247-.833l-.014,0a13.116,13.116,0,0,1-7.842-9.2.028.028,0,0,0,0-.007,23.535,23.535,0,0,1,3.03-17.95Zm31.488,5.8a25.4,25.4,0,0,1,7.03,1.13c-5.465,4.735-7.751,10.135-10.184,14.133A13.509,13.509,0,0,1,50.2,29.049c-1.816,1.042-4.285,1.59-7.759,1.492,1.245-5.949,4.043-9.406,6.579-11.44a13.577,13.577,0,0,1,5.014-2.664.928.928,0,1,0-.408-1.809,15.86,15.86,0,0,0-5.774,3.03,20.512,20.512,0,0,0-6.795,10.715,14.947,14.947,0,0,1-.653-8.669,12.94,12.94,0,0,1,5.484-7.5A21.22,21.22,0,0,1,55.7,8.833a19.154,19.154,0,0,1,2.355-.1Zm15.64,7.6a4.788,4.788,0,0,0-3.4,1.411L57.436,30.666,51,37.13h0a.906.906,0,0,0-.1.112l-26.214-.01H24.68c-.032,0-.064,0-.1,0a5.6,5.6,0,0,0-3.853,1.647L8.823,50.849a5.58,5.58,0,0,0-7.191.605,5.634,5.634,0,0,0,0,7.933L14.81,72.632a5.6,5.6,0,0,0,8.49-7.243l6.415-6.448a3.693,3.693,0,0,1,2.636-1.1l31.473.014a5.572,5.572,0,0,0,3.957-1.641L67.8,56.2,87.823,35.98a4.857,4.857,0,0,0,0-6.828,4.761,4.761,0,0,0-2.87-1.378l.5-.5a4.852,4.852,0,0,0,0-6.829,4.806,4.806,0,0,0-6.81,0l-.164.166A4.8,4.8,0,0,0,73.7,16.342Zm0,1.841a2.985,2.985,0,0,1,2.086,5.089h0a.917.917,0,0,0-.165.224L72.142,27l-6.5,6.56-6.39,6.451a5.591,5.591,0,0,0-4.813-2.768h-.92l5.235-5.26L71.617,19.051a2.937,2.937,0,0,1,2.086-.881Zm8.346,2.694a2.987,2.987,0,0,1,2.087,5.09l-8.511,8.553L63.441,46.625H58.568a5.6,5.6,0,0,0,1.457-3.774,5.483,5.483,0,0,0-.081-.909l.513-.518,6.5-6.56,6.5-6.56,6.5-6.559a2.92,2.92,0,0,1,2.084-.881Zm2.374,8.711a2.922,2.922,0,0,1,2.085.88,2.964,2.964,0,0,1,0,4.209L66.463,54.895h0l0,0a3.693,3.693,0,0,1-2.636,1.092l-31.473-.014h0A5.571,5.571,0,0,0,28.4,57.624l-6.356,6.39L10.191,52.106,22.048,40.188a3.7,3.7,0,0,1,2.626-1.1h.011l29.752.014a3.753,3.753,0,0,1,0,7.505l-15.121.017h0l-.03,0a.929.929,0,1,0,.03,1.857H63.608a1,1,0,0,0,1.031-.421l7.73-7.689a.912.912,0,0,0,.218-.172l4.337-4.359,5.4-5.375a2.959,2.959,0,0,1,2.092-.881ZM5.587,51.649a3.708,3.708,0,0,1,2.636,1.109L21.4,66a3.745,3.745,0,0,1,0,5.312,3.683,3.683,0,0,1-5.272,0L2.95,58.07a3.765,3.765,0,0,1,2.636-6.421Z" transform="translate(0)"/>
      </g>
    </g>
  </g>
</svg>
