<svg xmlns="http://www.w3.org/2000/svg" xmlns:xlink="http://www.w3.org/1999/xlink" width="588" height="168" viewBox="0 0 588 168">
  <defs>
    <filter id="mask">
      <feOffset dy="3" input="SourceAlpha"/>
      <feGaussianBlur stdDeviation="3" result="blur"/>
      <feFlood flood-opacity="0.161" result="color"/>
      <feComposite operator="out" in="SourceGraphic" in2="blur"/>
      <feComposite operator="in" in="color"/>
      <feComposite operator="in" in2="SourceGraphic"/>
    </filter>
  </defs>
  <g id="Group_428" data-name="Group 428" transform="translate(-676 -420)">
    <text id="SPACESHIP" transform="translate(807 560)" fill="#6800b8" font-size="140" font-family="Bison-Bold, Bison" font-weight="700"><tspan x="0" y="0">SPACESHIP</tspan></text>
    <g data-type="innerShadowGroup">
      <path id="mask-2" data-name="mask" d="M0,75.478s66.524-43.8,96.3-62.948c0,0-4.786,8.074-9.863,12.425,0,0,20.6,46.993-31.038,63.383,0,0,15.954-8.267,15.954-19.87s-11.893-17.55-33.286-7.76A325.879,325.879,0,0,1,0,75.478M41.263.371A44.589,44.589,0,0,0,17.332,12.192,26.758,26.758,0,0,0,9.863,35.543s1.015,7.542,12.908,7.542S80.5,16.107,80.5,16.107C64.977-3.836,41.263.371,41.263.371m59.594,8.738a22.79,22.79,0,0,1,3.715,8.232s.581-2.973,1.741-7.833c0,0,5.657-3.045,7.687-8.63v0c-5.912-.59-11.108,3.187-11.108,3.187C98.009,3,95.078,2.237,95.078,2.237a22.805,22.805,0,0,1,5.808,6.916Z" transform="translate(676 475.164)" fill="#6800b8"/>
      <g transform="matrix(1, 0, 0, 1, 676, 420)" filter="url(#mask)">
        <path id="mask-3" data-name="mask" d="M0,75.478s66.524-43.8,96.3-62.948c0,0-4.786,8.074-9.863,12.425,0,0,20.6,46.993-31.038,63.383,0,0,15.954-8.267,15.954-19.87s-11.893-17.55-33.286-7.76A325.879,325.879,0,0,1,0,75.478M41.263.371A44.589,44.589,0,0,0,17.332,12.192,26.758,26.758,0,0,0,9.863,35.543s1.015,7.542,12.908,7.542S80.5,16.107,80.5,16.107C64.977-3.836,41.263.371,41.263.371m59.594,8.738a22.79,22.79,0,0,1,3.715,8.232s.581-2.973,1.741-7.833c0,0,5.657-3.045,7.687-8.63v0c-5.912-.59-11.108,3.187-11.108,3.187C98.009,3,95.078,2.237,95.078,2.237a22.805,22.805,0,0,1,5.808,6.916Z" transform="translate(0 55.16)" fill="#fff"/>
      </g>
    </g>
  </g>
</svg>
