<?xml version="1.0" encoding="utf-8"?>
<!-- Generator: Adobe Illustrator 26.0.2, SVG Export Plug-In . SVG Version: 6.00 Build 0)  -->
<svg version="1.1" id="Layer_1" xmlns="http://www.w3.org/2000/svg" xmlns:xlink="http://www.w3.org/1999/xlink" x="0px" y="0px"
	 viewBox="0 0 341.8 39" style="enable-background:new 0 0 341.8 39;" xml:space="preserve">
<style type="text/css">
	.st0{enable-background:new    ;}
	.st1{fill:#101011;}
</style>
<g id="Desktop_Logo" transform="translate(-79.469 -41.72)">
	<g class="st0">
		<path class="st1" d="M153.2,54.3v4.9h6.6v3.1h-6.6v5.2h7.4v3.2h-11.3V51.1h11.3v3.2H153.2z"/>
		<path class="st1" d="M190.8,56.7c1.2,1.2,1.8,2.8,1.8,4.9v9.1h-3.9v-8.6c0-1.2-0.3-2.1-0.9-2.8c-0.6-0.6-1.5-1-2.5-1
			s-1.9,0.3-2.5,1c-0.6,0.6-0.9,1.6-0.9,2.8v8.6h-3.9v-8.6c0-1.2-0.3-2.1-0.9-2.8c-0.6-0.6-1.5-1-2.5-1c-1.1,0-1.9,0.3-2.6,1
			c-0.6,0.6-0.9,1.6-0.9,2.8v8.6h-3.9V55.2h3.9v1.9c0.5-0.7,1.2-1.2,1.9-1.5s1.7-0.6,2.6-0.6c1.2,0,2.3,0.3,3.2,0.8s1.7,1.2,2.2,2.2
			c0.5-0.9,1.2-1.6,2.2-2.2c1-0.5,2-0.8,3.1-0.8C188.1,55,189.6,55.6,190.8,56.7z"/>
		<path class="st1" d="M213.4,64.1H202c0.1,1.1,0.5,2,1.2,2.6c0.7,0.6,1.5,1,2.5,1c1.5,0,2.5-0.6,3.1-1.9h4.2
			c-0.4,1.5-1.3,2.7-2.6,3.7c-1.3,1-2.8,1.4-4.7,1.4c-1.5,0-2.8-0.3-4-1c-1.2-0.7-2.1-1.6-2.8-2.8c-0.7-1.2-1-2.6-1-4.2
			c0-1.6,0.3-3,1-4.2c0.7-1.2,1.6-2.1,2.7-2.8c1.2-0.7,2.5-1,4.1-1c1.5,0,2.8,0.3,4,1s2.1,1.5,2.7,2.7c0.6,1.2,1,2.5,1,4
			C213.5,63.2,213.5,63.7,213.4,64.1z M209.4,61.5c0-1-0.4-1.8-1.1-2.4c-0.7-0.6-1.6-0.9-2.6-0.9c-1,0-1.8,0.3-2.5,0.9
			s-1.1,1.4-1.2,2.5H209.4z"/>
		<path class="st1" d="M225,55.7c0.8-0.5,1.7-0.7,2.8-0.7v4.1h-1c-1.2,0-2.2,0.3-2.8,0.9c-0.6,0.6-0.9,1.6-0.9,3v7.7h-3.9V55.2h3.9
			v2.4C223.6,56.8,224.2,56.2,225,55.7z"/>
		<path class="st1" d="M235.8,70.3c-1-0.5-1.8-1.1-2.4-1.9s-0.9-1.7-1-2.6h3.9c0.1,0.6,0.4,1.1,0.9,1.5c0.5,0.4,1.2,0.6,1.9,0.6
			c0.7,0,1.3-0.1,1.8-0.4c0.4-0.3,0.6-0.7,0.6-1.1c0-0.5-0.3-0.9-0.8-1.1c-0.5-0.3-1.3-0.5-2.5-0.8c-1.2-0.3-2.1-0.6-2.8-0.9
			c-0.7-0.3-1.4-0.8-1.9-1.4c-0.5-0.6-0.8-1.4-0.8-2.5c0-0.9,0.2-1.6,0.7-2.4c0.5-0.7,1.2-1.3,2.1-1.7c0.9-0.4,2-0.6,3.3-0.6
			c1.8,0,3.3,0.5,4.4,1.4c1.1,0.9,1.7,2.2,1.8,3.7h-3.8c-0.1-0.6-0.3-1.1-0.8-1.5c-0.5-0.4-1.1-0.5-1.8-0.5c-0.7,0-1.3,0.1-1.6,0.4
			c-0.4,0.3-0.6,0.6-0.6,1.1c0,0.5,0.3,0.9,0.8,1.2c0.5,0.3,1.3,0.5,2.4,0.8c1.1,0.3,2,0.6,2.8,0.9c0.7,0.3,1.4,0.8,1.9,1.4
			c0.5,0.6,0.8,1.5,0.8,2.5c0,0.9-0.2,1.7-0.7,2.4c-0.5,0.7-1.2,1.3-2.1,1.7c-0.9,0.4-2,0.6-3.2,0.6C237.9,71,236.8,70.7,235.8,70.3
			z"/>
		<path class="st1" d="M254.2,70c-1.2-0.7-2.1-1.6-2.8-2.8c-0.7-1.2-1-2.6-1-4.2s0.3-3,1-4.2c0.7-1.2,1.7-2.2,2.9-2.8
			c1.2-0.7,2.6-1,4.1-1c1.5,0,2.8,0.3,4.1,1c1.2,0.7,2.2,1.6,2.9,2.8c0.7,1.2,1.1,2.6,1.1,4.2s-0.4,3-1.1,4.2
			c-0.7,1.2-1.7,2.2-2.9,2.8c-1.2,0.7-2.6,1-4.1,1C256.7,71,255.4,70.6,254.2,70z M260.2,67c0.6-0.3,1.1-0.9,1.5-1.6
			c0.4-0.7,0.6-1.5,0.6-2.5c0-1.5-0.4-2.6-1.2-3.4c-0.8-0.8-1.7-1.2-2.8-1.2s-2.1,0.4-2.8,1.2c-0.8,0.8-1.1,1.9-1.1,3.4
			s0.4,2.6,1.1,3.4c0.7,0.8,1.7,1.2,2.8,1.2C258.9,67.6,259.6,67.4,260.2,67z"/>
		<path class="st1" d="M285.1,56.7c1.1,1.2,1.7,2.8,1.7,4.9v9.1h-3.9v-8.6c0-1.2-0.3-2.2-0.9-2.8c-0.6-0.7-1.5-1-2.5-1
			c-1.1,0-1.9,0.3-2.6,1c-0.6,0.7-0.9,1.6-0.9,2.8v8.6H272V55.2h3.9v1.9c0.5-0.7,1.2-1.2,2-1.6c0.8-0.4,1.7-0.6,2.7-0.6
			C282.4,55,283.9,55.6,285.1,56.7z"/>
		<path class="st1" d="M320.3,51.2l-7.2,19.5h-4.8l-7.2-19.5h4.2l5.4,15.5l5.3-15.5H320.3z"/>
		<path class="st1" d="M325.7,52.7c-0.5-0.4-0.7-1-0.7-1.6c0-0.7,0.2-1.2,0.7-1.6c0.5-0.4,1-0.7,1.7-0.7c0.7,0,1.3,0.2,1.7,0.7
			s0.7,1,0.7,1.6c0,0.7-0.2,1.2-0.7,1.6s-1,0.7-1.7,0.7C326.8,53.4,326.2,53.1,325.7,52.7z M329.4,55.2v15.5h-3.9V55.2H329.4z"/>
		<path class="st1" d="M338.6,70.3c-1-0.5-1.8-1.1-2.4-1.9s-0.9-1.7-1-2.6h3.9c0.1,0.6,0.4,1.1,0.9,1.5c0.5,0.4,1.2,0.6,1.9,0.6
			c0.7,0,1.3-0.1,1.8-0.4c0.4-0.3,0.6-0.7,0.6-1.1c0-0.5-0.3-0.9-0.8-1.1s-1.3-0.5-2.5-0.8c-1.2-0.3-2.1-0.6-2.8-0.9
			s-1.4-0.8-1.9-1.4s-0.8-1.4-0.8-2.5c0-0.9,0.2-1.6,0.7-2.4c0.5-0.7,1.2-1.3,2.1-1.7c0.9-0.4,2-0.6,3.3-0.6c1.8,0,3.3,0.5,4.4,1.4
			c1.1,0.9,1.7,2.2,1.8,3.7h-3.8c-0.1-0.6-0.3-1.1-0.8-1.5c-0.5-0.4-1.1-0.5-1.8-0.5c-0.7,0-1.3,0.1-1.6,0.4
			c-0.4,0.3-0.6,0.6-0.6,1.1c0,0.5,0.3,0.9,0.8,1.2c0.5,0.3,1.3,0.5,2.4,0.8c1.1,0.3,2,0.6,2.8,0.9c0.7,0.3,1.4,0.8,1.9,1.4
			c0.5,0.6,0.8,1.5,0.8,2.5c0,0.9-0.2,1.7-0.7,2.4c-0.5,0.7-1.2,1.3-2.1,1.7c-0.9,0.4-2,0.6-3.2,0.6C340.7,71,339.6,70.7,338.6,70.3
			z"/>
		<path class="st1" d="M368.8,55.2v15.5h-3.9v-2c-0.5,0.7-1.2,1.2-2,1.6c-0.8,0.4-1.7,0.6-2.6,0.6c-1.2,0-2.3-0.3-3.2-0.8
			c-0.9-0.5-1.7-1.3-2.2-2.3c-0.5-1-0.8-2.2-0.8-3.6v-9.1h3.9v8.5c0,1.2,0.3,2.2,0.9,2.8c0.6,0.7,1.5,1,2.5,1c1.1,0,1.9-0.3,2.5-1
			c0.6-0.7,0.9-1.6,0.9-2.8v-8.5H368.8z"/>
		<path class="st1" d="M375.3,58.7c0.6-1.2,1.5-2.1,2.5-2.8c1.1-0.7,2.3-1,3.6-1c1.2,0,2.2,0.2,3,0.7c0.9,0.5,1.6,1.1,2.1,1.8v-2.2
			h3.9v15.5h-3.9v-2.3c-0.5,0.7-1.2,1.3-2.1,1.8c-0.9,0.5-1.9,0.7-3.1,0.7c-1.3,0-2.5-0.3-3.6-1c-1.1-0.7-1.9-1.6-2.5-2.8
			s-0.9-2.6-0.9-4.2C374.4,61.3,374.7,59.9,375.3,58.7z M386.1,60.5c-0.4-0.7-0.9-1.2-1.5-1.6c-0.6-0.4-1.3-0.5-2-0.5
			s-1.4,0.2-2,0.5c-0.6,0.4-1.1,0.9-1.5,1.6c-0.4,0.7-0.6,1.5-0.6,2.4s0.2,1.8,0.6,2.4c0.4,0.7,0.9,1.2,1.5,1.6
			c0.6,0.4,1.3,0.6,2,0.6c0.7,0,1.4-0.2,2-0.5c0.6-0.4,1.1-0.9,1.5-1.6s0.6-1.5,0.6-2.5S386.4,61.2,386.1,60.5z"/>
		<path class="st1" d="M401.1,50v20.7h-3.9V50H401.1z"/>
		<path class="st1" d="M410.3,70.3c-1-0.5-1.8-1.1-2.4-1.9s-0.9-1.7-1-2.6h3.9c0.1,0.6,0.4,1.1,0.9,1.5s1.2,0.6,1.9,0.6
			c0.7,0,1.3-0.1,1.8-0.4c0.4-0.3,0.6-0.7,0.6-1.1c0-0.5-0.3-0.9-0.8-1.1c-0.5-0.3-1.3-0.5-2.5-0.8c-1.2-0.3-2.1-0.6-2.8-0.9
			c-0.7-0.3-1.4-0.8-1.9-1.4c-0.5-0.6-0.8-1.4-0.8-2.5c0-0.9,0.2-1.6,0.7-2.4c0.5-0.7,1.2-1.3,2.1-1.7c0.9-0.4,2-0.6,3.3-0.6
			c1.8,0,3.3,0.5,4.4,1.4s1.7,2.2,1.8,3.7h-3.8c-0.1-0.6-0.3-1.1-0.8-1.5c-0.5-0.4-1.1-0.5-1.8-0.5c-0.7,0-1.3,0.1-1.6,0.4
			s-0.6,0.6-0.6,1.1c0,0.5,0.3,0.9,0.8,1.2c0.5,0.3,1.3,0.5,2.4,0.8c1.1,0.3,2,0.6,2.8,0.9c0.7,0.3,1.4,0.8,1.9,1.4
			c0.5,0.6,0.8,1.5,0.8,2.5c0,0.9-0.2,1.7-0.7,2.4c-0.5,0.7-1.2,1.3-2.1,1.7c-0.9,0.4-2,0.6-3.2,0.6C412.4,71,411.3,70.7,410.3,70.3
			z"/>
	</g>
	<g id="Group_87" transform="translate(79.469 44.882)">
		<path id="Path_2851" class="st1" d="M0,8V0.6C0,0.2,0.2,0,0.6,0c0,0,0,0,0,0h15L20,8.5H0.6C0.2,8.5,0,8.3,0,8C0,8,0,8,0,8z"/>
		<path id="Path_2852" class="st1" d="M0,12h21.8l4.4,8.6H0.6c-0.3,0-0.6-0.2-0.6-0.6V12z"/>
		<path id="Path_2853" class="st1" d="M0.6,24.1H28l4.4,8.5H0.6c-0.3,0-0.6-0.2-0.6-0.6v-7.4C0,24.4,0.3,24.1,0.6,24.1z"/>
		<path id="Path_2854" class="st1" d="M36.3,14.7L28.8,0h-9.1l16.9,32.7L53.6,0h-9.6L36.3,14.7z"/>
	</g>
</g>
</svg>
