<svg id="footerLogo" xmlns="http://www.w3.org/2000/svg" width="92.64" height="56.492" viewBox="0 0 92.64 56.492">
  <path id="Path_2851" data-name="Path 2851" d="M1698.465,52.442V39.615a.957.957,0,0,1,.959-.956h25.891l7.635,14.742h-33.526A.96.96,0,0,1,1698.465,52.442Z" transform="translate(-1698.465 -38.659)" fill="#fff"/>
  <path id="Path_2852" data-name="Path 2852" d="M1698.465,44.717H1736.1l7.67,14.807h-44.349a.959.959,0,0,1-.959-.956V44.717Z" transform="translate(-1698.465 -23.89)" fill="#fff"/>
  <path id="Path_2853" data-name="Path 2853" d="M1699.424,50.794h47.5l7.649,14.773h-55.151a.959.959,0,0,1-.959-.956V51.75A.959.959,0,0,1,1699.424,50.794Z" transform="translate(-1698.465 -9.075)" fill="#fff"/>
  <path id="Path_2854" data-name="Path 2854" d="M1737.133,64.094,1724.17,38.659h-15.8l29.26,56.491,29.317-56.48h-16.667Z" transform="translate(-1674.31 -38.659)" fill="#fff"/>
</svg>
