<svg xmlns="http://www.w3.org/2000/svg" width="193.246" height="454.74" viewBox="0 0 193.246 454.74">
  <g id="homeIllustration" transform="translate(-130.943 -28.742)">
    <path id="Path_3768" data-name="Path 3768" d="M707.9,545.559l7.738-46.534a3.605,3.605,0,0,0-2.962-4.143l-35.143-5.844A3.605,3.605,0,0,0,673.386,492l-7.738,46.534a3.605,3.605,0,0,0,2.962,4.143l35.143,5.844A3.605,3.605,0,0,0,707.9,545.559Z" transform="translate(-534.657 -215.789)" fill="#3f3d56"/>
    <path id="Path_3769" data-name="Path 3769" d="M708.38,531.918,713.355,502a3.376,3.376,0,0,0-2.774-3.88l-30.2-5.022a3.377,3.377,0,0,0-3.881,2.774l-6.886,41.408a3.376,3.376,0,0,0,2.774,3.88l18.71,3.111a15.04,15.04,0,0,0,17.284-12.355Z" transform="translate(-535.499 -216.652)" fill="#fff"/>
    <path id="Path_3770" data-name="Path 3770" d="M705.037,512.006a3.3,3.3,0,0,0-2.71-3.792l-20.952-3.484a3.3,3.3,0,1,0-1.081,6.5l20.951,3.484a3.3,3.3,0,0,0,3.792-2.711Z" transform="translate(-533.46 -219.121)" fill="#6c63ff"/>
    <path id="Path_3771" data-name="Path 3771" d="M707.172,524.846a3.3,3.3,0,0,0-2.71-3.792L683.51,517.57a3.3,3.3,0,0,0-1.081,6.5l20.952,3.484a3.3,3.3,0,0,0,3.792-2.71Z" transform="translate(-537.276 -221.847)" fill="#6c63ff"/>
    <path id="Path_3772" data-name="Path 3772" d="M709.307,537.687a3.3,3.3,0,0,0-2.71-3.792l-20.952-3.484a3.3,3.3,0,0,0-1.081,6.5l20.952,3.484A3.3,3.3,0,0,0,709.307,537.687Z" transform="translate(-541.093 -224.573)" fill="#6c63ff"/>
    <path id="Path_3773" data-name="Path 3773" d="M659.072,485.54a9.426,9.426,0,0,0-2.12-14.3l12.258-58.368-16.247,6.247-9.406,55.763a9.477,9.477,0,0,0,15.515,10.657Z" transform="translate(-469.964 -199.629)" fill="#ffb8b8"/>
    <path id="Path_3774" data-name="Path 3774" d="M356.71,582.913H343.337l-6.362-51.583h19.737Z" transform="translate(-162.193 -112.393)" fill="#ffb6b6"/>
    <path id="Path_3775" data-name="Path 3775" d="M687.265,732.336H683.5l-14.7-5.977-7.876,5.976h0a16.785,16.785,0,0,0-16.784,16.783v.546l43.121,0Z" transform="translate(-489.337 -266.184)" fill="#2f2e41"/>
    <path id="Path_3776" data-name="Path 3776" d="M224.247,562.3l-11.969,5.965-28.7-43.327,17.665-8.8Z" transform="translate(91.107 -109.167)" fill="#ffb6b6"/>
    <path id="Path_3777" data-name="Path 3777" d="M516.725,710.524l-3.369,1.679-15.819,1.207-4.384,8.862h0a16.785,16.785,0,0,0-7.534,22.508l.243.488,38.593-19.235Z" transform="translate(-200.266 -262.822)" fill="#2f2e41"/>
    <path id="Path_3778" data-name="Path 3778" d="M525.438,442.078l85.031,2.218L608.99,485.7s1.479,11.091-1.479,14.049-4.436,2.958-2.958,8.133,5.3,54.629,5.3,54.629,34.9,61.708,33.42,63.187-2.958,0-1.479,3.7,2.958,2.218,1.479,3.7a54.479,54.479,0,0,0-3.7,4.436h-24.1s-1.348-7.394-1.348-8.134-1.479-5.176-1.479-5.915-42.109-45.354-42.109-45.354l-8.873-73.94-21.443,72.461s0,63.588-1.479,65.067-1.479.739-.739,3.7,3.7,2.218,1.479,4.437-2.958-1.479-2.218,2.218l.739,3.7-28.407.317s-2.958-6.232-1.479-8.451,1.39-1.613-.414-5.243-2.543-4.369-1.8-5.109.739-4.672.739-4.672S517.3,487.181,517.3,484.963a7.374,7.374,0,0,0-.614-3.326v-3.011l2.832-10.669Z" transform="translate(-336.846 -205.83)" fill="#2f2e41"/>
    <path id="Path_3780" data-name="Path 3780" d="M293.2,115.052l-42.592,86.136,8.333,104.537,54.425-4.973,9.76-173.121Z" transform="translate(-60.583 -24.016)" fill="#2f2e41"/>
    <path id="Path_3781" data-name="Path 3781" d="M625.165,441.686l24.888-2.275.039-.316,16.7-138.288-3.738-10.363a15.175,15.175,0,0,0-11.354-9.71h0a15.109,15.109,0,0,0-17.714,12.085l-4.469,24.142-6.341,81.608Z" transform="translate(-452.35 -171.518)" fill="#2f2e41"/>
    <path id="Path_3782" data-name="Path 3782" d="M650.232,270.706,645.213,258.7l-15.535.273-16.2,22.914-17,71.5s-6.107,52.232,0,54.989,26.8-.648,26.8-.648Z" transform="translate(-412.62 -166.897)" fill="#6c63ff"/>
    <path id="Path_3783" data-name="Path 3783" d="M660.321,259.044s-33.464,19.344-34.772,29.442-5.691,133.687-5.691,133.687l11.834-7.647,3.234-45.044,14.442-92.223Z" transform="translate(-443.263 -166.971)" fill="#2f2e41"/>
    <ellipse id="Ellipse_1765" data-name="Ellipse 1765" cx="22.807" cy="22.807" rx="22.807" ry="22.807" transform="translate(202.15 40.833)" fill="#ffb8b8"/>
    <path id="Path_3784" data-name="Path 3784" d="M627.462,198.556c-2.561-3.962-7.367-6.6-12.026-5.86a16.422,16.422,0,0,0-27.516-9.578,5.107,5.107,0,0,0-4.994-.5,10.528,10.528,0,0,0-4.057,3.257,23.631,23.631,0,0,0-3.307,24.041c-.569-2.07,1.505-4.017,3.6-4.482s4.294-.025,6.419-.328c2.724-.388,5.173-1.968,7.9-2.323a17.988,17.988,0,0,1,6.835.878,18.533,18.533,0,0,0,6.832.917c2.3-.273,5.254,8.43,5.215,14.559-.008,1.162.232,2.653,1.367,2.9,1.4.3,2.208-1.626,3.539-2.152a2.461,2.461,0,0,1,3.019,1.606,4.014,4.014,0,0,1-.766,3.594,11.858,11.858,0,0,1-2.875,2.494l.548.456a3.261,3.261,0,0,0,4.116.511,8.885,8.885,0,0,0,2.955-3.365,39.6,39.6,0,0,0,5.421-12.989C630.548,207.552,630.023,202.518,627.462,198.556Z" transform="translate(-376.636 -149.901)" fill="#2f2e41"/>
    <path id="Path_3785" data-name="Path 3785" d="M603.5,404.74l-45.565-48.884a5.107,5.107,0,0,0-7.21-.253l-36.919,34.411a5.108,5.108,0,0,0-.253,7.21l45.565,48.884a5.107,5.107,0,0,0,7.21.253l36.919-34.411A5.107,5.107,0,0,0,603.5,404.74Z" transform="translate(-302.996 -187.18)" fill="#e6e6e6"/>
    <path id="Path_3786" data-name="Path 3786" d="M597.039,394.078l-29.293-31.427a4.783,4.783,0,0,0-6.753-.237l-31.729,29.574a4.783,4.783,0,0,0-.237,6.753l40.546,43.5a4.783,4.783,0,0,0,6.753.237l19.655-18.32a21.306,21.306,0,0,0,1.057-30.079Z" transform="translate(-313.13 -188.645)" fill="#fff"/>
    <path id="Path_3787" data-name="Path 3787" d="M596.827,379.871a4.674,4.674,0,0,0-6.6-.232l-22.01,20.515a4.669,4.669,0,0,0,6.367,6.831L596.6,386.47A4.674,4.674,0,0,0,596.827,379.871Z" transform="translate(-339.176 -192.308)" fill="#e6e6e6"/>
    <path id="Path_3788" data-name="Path 3788" d="M584.254,393.361a4.674,4.674,0,0,0-6.6-.232l-22.01,20.515a4.669,4.669,0,0,0,6.367,6.831l22.01-20.515A4.674,4.674,0,0,0,584.254,393.361Z" transform="translate(-316.699 -195.172)" fill="#e6e6e6"/>
    <path id="Path_3789" data-name="Path 3789" d="M571.681,406.85a4.674,4.674,0,0,0-6.6-.232l-22.01,20.515a4.669,4.669,0,1,0,6.367,6.831l22.01-20.515A4.674,4.674,0,0,0,571.681,406.85Z" transform="translate(-294.222 -198.036)" fill="#e6e6e6"/>
    <path id="Path_3790" data-name="Path 3790" d="M567.069,478.041,582.822,500.6l.734.885a8.749,8.749,0,0,0,4.994,2.981,8.415,8.415,0,0,0,.835.125,8.55,8.55,0,0,0,1.039.043c.2,0,.4-.015.595-.032a8.728,8.728,0,0,0,3.29-.959l6.721-4.694a2.7,2.7,0,0,0,1.074-1.56,2.73,2.73,0,0,0,.066-.958,2.694,2.694,0,0,0-.471-1.25L582.3,467.4a2.711,2.711,0,0,0-3.77-.669l-10.793,7.538-.075.054c-.016.012-.032.024-.047.037s-.043.033-.063.05-.052.043-.077.066l-.067.063-.013.013c-.028.027-.056.055-.083.084s-.054.058-.079.087l-.054.065,0,0c-.052.065-.1.132-.147.2-.015.021-.029.044-.042.066l-.006.009c-.011.018-.022.035-.032.053-.031.053-.06.108-.088.164a2.817,2.817,0,0,0-.12.284c-.011.031-.022.062-.031.093s-.016.051-.023.078l0,.006,0,.01c-.007.023-.013.045-.019.068-.011.043-.021.087-.03.132,0,.012-.005.024-.008.036s0,.024-.006.037,0,.024-.006.036l0,.019c-.005.036-.01.072-.014.107s-.009.09-.011.134,0,.074,0,.111,0,.066,0,.1a.239.239,0,0,0,0,.026c0,.034,0,.068,0,.1.005.086.015.172.029.256.005.032.011.063.017.094s.015.075.024.112c0,.014.007.028.01.042s.011.041.017.062.013.046.02.068l.017.054c.011.032.022.063.034.094s.014.037.022.056a2.7,2.7,0,0,0,.195.389l.028.045C567.022,477.973,567.045,478.007,567.069,478.041Z" transform="translate(-343.162 -210.961)" fill="#fff"/>
    <ellipse id="Ellipse_1766" data-name="Ellipse 1766" cx="2.312" cy="2.312" rx="2.312" ry="2.312" transform="translate(232.262 263.313)" fill="#6c63ff"/>
    <path id="Path_3791" data-name="Path 3791" d="M568.187,490.809a9.426,9.426,0,0,0-2.12-14.3l12.258-58.369-16.247,6.247-9.406,55.763a9.477,9.477,0,0,0,15.515,10.657Z" transform="translate(-307.489 -200.748)" fill="#ffb8b8"/>
    <path id="Path_3792" data-name="Path 3792" d="M567.7,436.413l6.612-42.6,2.485-81.823-1.846-24.524a15.108,15.108,0,0,0-28.643-5.49l-4.831,9.9,1.725,139.6Z" transform="translate(-298.004 -170.038)" fill="#2f2e41"/>
    <path id="Path_3794" data-name="Path 3794" d="M592.547,234.282a1.575,1.575,0,1,0-2.631,1.255l-2.648,4.351a.788.788,0,0,0,1.346.819l2.977-4.892A1.571,1.571,0,0,0,592.547,234.282Z" transform="translate(-349.73 -161.398)" fill="#fff"/>
    <rect id="Rectangle_104" data-name="Rectangle 104" width="0.788" height="2.363" rx="0.394" transform="translate(241.14 73.732) rotate(26.764)" fill="#2f2e41"/>
  </g>
</svg>
