<svg id="mobileLogo" xmlns="http://www.w3.org/2000/svg" width="39.88" height="24.319" viewBox="0 0 39.88 24.319">
  <path id="Path_2851" data-name="Path 2851" d="M1698.465,44.592V39.07a.412.412,0,0,1,.413-.411h11.146l3.287,6.346h-14.433A.413.413,0,0,1,1698.465,44.592Z" transform="translate(-1698.465 -38.659)" fill="#101011"/>
  <path id="Path_2852" data-name="Path 2852" d="M1698.465,44.717h16.2l3.3,6.374h-19.092a.413.413,0,0,1-.413-.411V44.717Z" transform="translate(-1698.465 -35.751)" fill="#101011"/>
  <path id="Path_2853" data-name="Path 2853" d="M1698.878,50.794h20.449l3.292,6.359h-23.741a.413.413,0,0,1-.413-.411V51.205A.413.413,0,0,1,1698.878,50.794Z" transform="translate(-1698.465 -32.834)" fill="#101011"/>
  <path id="Path_2854" data-name="Path 2854" d="M1720.754,49.608l-5.58-10.95h-6.8l12.6,24.319,12.62-24.314h-7.175Z" transform="translate(-1693.709 -38.659)" fill="#101011"/>
</svg>
