<?xml version="1.0" encoding="utf-8"?>
<!-- Generator: Adobe Illustrator 26.0.3, SVG Export Plug-In . SVG Version: 6.00 Build 0)  -->
<svg version="1.1" id="Layer_1" xmlns="http://www.w3.org/2000/svg" xmlns:xlink="http://www.w3.org/1999/xlink" x="0px" y="0px"
	 viewBox="0 0 156 87.9" style="enable-background:new 0 0 156 87.9;" xml:space="preserve">
<style type="text/css">
	.st0{opacity:0.4;}
	.st1{fill:none;stroke:#101011;stroke-width:2;}
	.st2{fill:none;stroke:#101011;stroke-width:4;}
</style>
<g class="st0">
	<path id="Path_3747" class="st1" d="M78,85V39.4"/>
	<path id="Path_3748" class="st2" d="M66.8,73.8L78,85l11.2-11.2"/>
	<g>
		<path d="M17.8,21.4c-2.8,0-5-1.3-5.2-4.1h3.8c0.1,1,0.6,1.3,1.3,1.3c0.6,0,1.1-0.3,1.1-0.9c0-2-6.2-1.1-6.1-5.5
			c0-2.5,2.1-3.8,4.7-3.8c2.9,0,4.8,1.4,4.9,3.9h-3.8c0-0.8-0.5-1.1-1.2-1.1c-0.5,0-0.9,0.3-0.9,0.9c0,1.9,6.1,1.3,6.1,5.3
			C22.6,19.7,20.8,21.4,17.8,21.4z"/>
		<path d="M30.1,8.5c3.2,0,5.4,1.8,6.1,4.7h-3.8c-0.4-1-1.3-1.5-2.3-1.5c-1.6,0-2.7,1.3-2.7,3.2c0,2,1.1,3.2,2.7,3.2
			c1,0,1.9-0.5,2.3-1.5h3.8c-0.6,2.9-2.9,4.7-6.1,4.7c-3.8,0-6.3-2.7-6.3-6.4C23.8,11.1,26.3,8.5,30.1,8.5z"/>
		<path d="M43.4,8.6c3.1,0,4.7,1.8,4.7,4.1c0,1.7-0.9,3.1-2.8,3.7l2.9,4.9h-3.9l-2.5-4.7h-0.4v4.7h-3.5V8.6H43.4z M43.1,11.6h-1.7
			v2.6h1.7c1,0,1.4-0.5,1.4-1.3C44.5,12.1,44,11.6,43.1,11.6z"/>
		<path d="M55.8,21.4c-3.6,0-6.5-2.7-6.5-6.5c0-3.8,2.9-6.5,6.5-6.5c3.6,0,6.5,2.7,6.5,6.5C62.3,18.7,59.4,21.4,55.8,21.4z
			 M55.8,18.1c1.8,0,2.9-1.3,2.9-3.2c0-2-1.1-3.3-2.9-3.3c-1.8,0-2.9,1.3-2.9,3.3C52.9,16.9,53.9,18.1,55.8,18.1z"/>
		<path d="M67.4,8.6v10h3.9v2.7h-7.5V8.6H67.4z"/>
		<path d="M76.2,8.6v10h3.9v2.7h-7.5V8.6H76.2z"/>
		<path d="M96.5,14.9c0,3.7-2.6,6.3-6.6,6.3h-5V8.6h5C94,8.6,96.5,11.2,96.5,14.9z M89.7,18.2c2,0,3.3-1.1,3.3-3.2
			c0-2.1-1.3-3.3-3.3-3.3h-1.2v6.5H89.7z"/>
		<path d="M104.2,21.4c-3.6,0-6.5-2.7-6.5-6.5c0-3.8,2.9-6.5,6.5-6.5c3.6,0,6.5,2.7,6.5,6.5C110.7,18.7,107.8,21.4,104.2,21.4z
			 M104.2,18.1c1.8,0,2.9-1.3,2.9-3.2c0-2-1.1-3.3-2.9-3.3c-1.8,0-2.9,1.3-2.9,3.3C101.3,16.9,102.4,18.1,104.2,18.1z"/>
		<path d="M111.7,8.6h3.8l1.5,8.7l2-8.7h3.9l1.9,8.6l1.5-8.6h3.8L127,21.3h-4.3l-1.7-7.8l-1.8,7.8h-4.3L111.7,8.6z"/>
		<path d="M143.3,8.6v12.7h-3.5l-4.7-7.1v7.1h-3.5V8.6h3.5l4.7,7.2V8.6H143.3z"/>
	</g>
</g>
</svg>
