<?xml version="1.0" encoding="utf-8"?>
<!-- Generator: Adobe Illustrator 26.0.3, SVG Export Plug-In . SVG Version: 6.00 Build 0)  -->
<svg version="1.1" id="Layer_1" xmlns="http://www.w3.org/2000/svg" xmlns:xlink="http://www.w3.org/1999/xlink" x="0px" y="0px"
	 viewBox="0 0 174 84" style="enable-background:new 0 0 174 84;" xml:space="preserve">
<style type="text/css">
	.st0{enable-background:new    ;}
	.st1{fill:#1A1818;}
</style>
<g class="st0">
	<path class="st1" d="M36.9,16.4c1.4,0,2.8,0.8,2,2.3c-0.1,0.1-0.2,0.4-0.5,0.9c8.3-0.9,15.2-1.7,18-2.3c5.4-0.5,4.2,2.7,2.7,3.1
		c-3.5,0.8-12.3,1.6-22.4,2.4C33,29.5,25.5,43,20.7,52.3c-1.6,3.1-3.1,6.4-4.6,9.6c-0.4,0.9-1.5,1.3-2.5,1.3c-1.3,0-2.3-0.6-1.9-2.1
		c0.8-2.8,6.7-14,12.3-24.4c0.8-3.1,1-6,0.5-8.2c-0.6-2.1-2-3.7-4.7-4.4c-5.4,0.4-11.1,0.7-16.4,1.2c-0.7,0.1-1.3-0.4-1.3-1.1
		C2,23.5,2.5,23,3.1,22.9c5.3-0.5,10.4-2.3,15.9-1.5c4.7-0.4,9.6-0.9,14.2-1.3c0.8-1.4,1.3-2.4,1.4-2.6C35,16.7,36,16.4,36.9,16.4z
		 M31.5,23.2l-7,0.5c2.1,2,2.6,4.3,2.8,7.1C28.8,27.9,30.3,25.3,31.5,23.2z"/>
	<path class="st1" d="M55.7,9.1c1.5,0,2.9,0.4,1.9,1.8c-1.3,1.7-3.2,4.6-5.3,8L52.2,19c-3.1,5.1-6,10.3-8.7,15.6
		c-2.6,4.7-5.2,9.4-7.2,13.6c2.5-2.7,7-7.9,10.8-7.9c2,0,3.4,1.8,2.8,6.8c-0.3,2.7-0.2,3.7,0.7,3.7c0.9,0,2.3-0.8,4.5-2.1
		c3.6-2.2,7.5-4.8,10.4-7.9c0.4-0.5,1.2-0.5,1.7-0.1c0.5,0.5,0.5,1.3,0.1,1.8c-3.6,3.9-13.4,11.1-18.3,11.1c-2.6,0-4.2-1.7-3.5-6.8
		c0.3-2.3,0.2-3.3-0.3-3.3c-2.3,0-11.5,11.9-12.8,13.6c-0.2,0.4-0.7,0.5-1.3,0.5c-1.1,0-2.4-0.7-2-1.8c1.6-4.9,5.8-13.8,10.4-22.6
		c5.1-9.7,10.8-19.5,13.9-23.6C53.6,9.4,54.7,9.1,55.7,9.1z"/>
	<path class="st1" d="M72.7,36.6c0.3-0.4,0.8-0.7,1.3-0.7c0.5-0.1,0.9,0,1.3,0.2c0.8,0.5,1.6,1.5,2.1,2.8c0.4,1,0.4,2.2,0.2,3.4
		c0.2,0.1,0.5,0.2,0.7,0.2c1.3,0.2,2.6,0.2,3.9,0.1c1.6-0.2,3.1-0.9,3.9-1.7c0.5-0.5,1.3-0.5,1.8,0.1c0.5,0.5,0.5,1.3,0,1.7
		c-1.3,1.3-3.3,2-5.4,2.4c-1.6,0.2-3.2,0.2-4.7-0.1c-0.4-0.1-0.7-0.2-1-0.3c-1.6,3.6-4.8,6-8.8,6c-2.9,0-5.3-1.6-4.5-5.6
		c0.7-3.9,4.2-7.8,8.1-8.6C72,36.3,72.3,36.4,72.7,36.6z M68.1,45.5c-0.4,1.8,0.2,2.5,1.2,2.5c1.2,0,2.8-1,3.8-2.1
		c0.5-0.7,1.1-1.6,1.5-2.4c-1.3-0.6-2.2-2.5-2.4-3.8C70.3,40.8,68.5,43.3,68.1,45.5z M75,39.7c-0.1-0.3-0.2-0.5-0.4-0.8
		c0,0.2,0.1,0.2,0.1,0.5c0.1,0.5,0.2,0.9,0.5,1.3C75.2,40.3,75.1,39.9,75,39.7z"/>
	<path class="st1" d="M89.5,38c1.3,0,2.7,0.6,1.7,2c-2.5,4-5.2,8.4-7.1,12.7l1.7-2.2C89.4,46,94.1,40,98,38.1
		c0.2-0.2,0.5-0.3,0.8-0.3c0.5-0.2,1-0.2,1.4-0.2c1.1,0,1.8,0.5,2.2,1.5c0.8,1.9-0.5,5.6-1.5,8.8c-0.8,1.8-1.1,2.6-0.9,2.6
		s0.9-1.1,2.5-3c2.7-3.1,5.8-6.8,8.2-6.8c2-0.1,2.5,1.8,3.1,4c0.8,3.1,1.7,4.5,3.3,4.5c3.2,0,9.6-6.4,11.5-8.4
		c0.5-0.5,1.3-0.5,1.8,0c0.5,0.5,0.5,1.3,0,1.8c-3.4,3.3-9.8,9.4-15,9.4c-2,0-3.8-0.9-5.1-3.8c-0.4-0.9-0.7-2-1-2.9
		c-0.2-0.4-0.2-0.8-0.3-1.1c-1.3,1.2-3,3.1-4.5,4.9c-2.2,2.5-5.5,5.2-7.5,5.2c-1.6,0-2.4-1.9-0.5-7.2c0.7-2.3,1.6-4.9,1.7-6.2
		c-3.2,2-7.3,7.2-10.4,11.2c-1.2,1.5-2.2,2.8-3.1,3.8c0,0-0.1,0.1-0.1,0.2c-0.9,1-1.9,1.7-2.7,1.7s-1.3-0.6-1.3-2.2
		c-0.1-3.5,4.6-13.5,6.8-16.9C87.7,38.2,88.7,38,89.5,38z"/>
	<path class="st1" d="M134.2,37.4c1.9,0,3.4,1.2,4.5,2.7l0.1-0.1c0-1,1.2-1.6,2.3-1.6c1.2,0,2.3,0.5,2.3,2c-0.3,1.7-0.2,3,0.1,3.8
		c0.2,0.8,0.9,1.1,1.6,1.1c2.7,0,7.5-3.8,8.5-4.6c0.5-0.4,1.3-0.3,1.7,0.2c0.5,0.5,0.4,1.3-0.2,1.8c-3.1,2.6-7.3,5.3-11.6,5.3
		c-1.3,0-2.6-0.4-3.5-1.3c-0.5-0.5-0.9-1.3-1.1-2.1c-2.3,2.3-5.6,4.9-9,4.9c-3.7,0-4.2-4-1.8-7.9C129.4,39.4,131.7,37.4,134.2,37.4z
		 M136.8,41.7c-0.5-0.9-1.2-1.3-1.8-1.3c-1.6,0-3.3,2.7-3.8,4.3c-0.5,1.3-0.2,1.7,0.5,1.7c1.4,0,3.5-1.6,4.5-2.4
		c0.5-0.5,1.1-1.2,1.6-1.8C137.3,42.2,137,42,136.8,41.7z"/>
	<path class="st1" d="M163.6,47.6c0.2-0.2,0.4-0.2,0.5-0.3c3.6-2,6.4-4.2,8.3-6.5c0.4-0.5,1.2-0.5,1.7-0.2c0.5,0.5,0.6,1.3,0.2,1.8
		c-2,2.4-5.1,4.9-9,7.1c-0.3,0.2-0.7,0.4-1.1,0.6c0.2,1.9-0.3,4.1-1.9,6.4c-2.2,3.3-5.6,5.2-9.5,5.2c-7.1,0-11.9-6.8-0.5-9.7
		c2.6-0.7,4.9-1.5,7.1-2.4c-0.5-2.6-2.4-4.6-3.8-6c-2-2.2-3.7-4.8-0.5-7.1c0.9-0.6,2.3-1.2,3.6-1.2c0.9,0,1.7,0.3,2.3,1
		c0.7,1,0.2,2.4-2.4,4.6C160.6,43,162.5,44.8,163.6,47.6z M158.1,55.3c0.7-1,1.1-2,1.3-2.9c-2,0.8-4.2,1.5-6.4,2
		c-7.3,2-5,4.6-1.4,4.6c1.4,0,3-0.4,4.3-1.3C156.7,57.1,157.5,56.3,158.1,55.3z"/>
</g>
</svg>
